<svg id="Layer_1" data-name="Layer 1" xmlns="http://www.w3.org/2000/svg" viewBox="0 0 55 74.99"><title>Bandplanet logo - SYMBOL</title><path d="M32,6.77a23,23,0,1,0,23,23A23,23,0,0,0,32,6.77ZM42.76,30.44,28.48,39.88a.86.86,0,0,1-1.34-.72V20.29a.86.86,0,0,1,1.34-.72L42.76,29A.86.86,0,0,1,42.76,30.44Z" fill="#b8dc1e"/><path d="M46,71.6H38L36.66,61.42a32,32,0,0,0,7.64-2.11A1.7,1.7,0,1,0,43,56.18,28.64,28.64,0,1,1,21.09,3.26,1.7,1.7,0,1,0,19.79.13a32,32,0,0,0,7.64,61.28L26.11,71.6h-8a1.7,1.7,0,1,0,0,3.39H46a1.7,1.7,0,0,0,0-3.39Z" fill="#fff"/></svg>