<svg xmlns="http://www.w3.org/2000/svg" width="54" height="54" viewBox="0 0 54 54">
  <defs>
    <style>
      .cls-1 {
        fill: #bcde29;
      }
      .cls-1, .cls-2 {
        fill-rule: evenodd;
      }
      .cls-2 {
        fill: #fff;
      }
    </style>
  </defs>
  <path id="Rectangle_2_copy" data-name="Rectangle 2 copy" class="cls-1" d="M1202,201v2h0v5h-54v-1h0V154h54v5h0v2h0v40h0Zm-2,2V156h-50v50h50v-3Z" transform="translate(-1148 -154)"/>
  <path class="cls-2" d="M1194,164v28a6.521,6.521,0,1,1-6.5-6,6.762,6.762,0,0,1,4.5,1.684V164h2Zm-6.5,24a4.028,4.028,0,1,0,4.5,4A4.269,4.269,0,0,0,1187.5,188Zm-25.5-8h24v2h-24v-2Zm0-8h24v2h-24v-2Zm0-8h24v2h-24v-2Zm-6,32h3v2h-3v-2Zm0-8h3v2h-3v-2Zm0-8h3v2h-3v-2Zm0-8h3v2h-3v-2Zm0-8h3v2h-3v-2Zm20,26h-14v-2h14v2Zm0,8h-14v-2h14v2Z" transform="translate(-1148 -154)"/>
</svg>
