<svg xmlns="http://www.w3.org/2000/svg" width="60" height="60" viewBox="0 0 60 60">
  <defs>
    <style>
      .cls-1 {
        fill: #bcde29;
      }
      .cls-1, .cls-2 {
        fill-rule: evenodd;
      }
      .cls-2 {
        fill: #fff;
      }
    </style>
  </defs>
  <path id="Ellipse_502_copy_3" data-name="Ellipse 502 copy 3" class="cls-1" d="M1129,308a30,30,0,1,1,30-30A30,30,0,0,1,1129,308Zm0-58a28,28,0,1,0,28,28A28,28,0,0,0,1129,250Zm0,38a10,10,0,1,1,10-10A10,10,0,0,1,1129,288Zm0-18a8,8,0,1,0,8,8A8,8,0,0,0,1129,270Z" transform="translate(-1099 -248)"/>
  <path id="Rectangle_503_copy_2" data-name="Rectangle 503 copy 2" class="cls-2" d="M1129,302v-2a22,22,0,0,0,22-22h2A24,24,0,0,1,1129,302Zm3.05-7v-2.055a15.279,15.279,0,0,0,11.9-11.9H1146A17.281,17.281,0,0,1,1132.05,295ZM1107,278h-2a24,24,0,0,1,24-24v2A22,22,0,0,0,1107,278Zm18.95-17v2.055a15.278,15.278,0,0,0-11.9,11.9H1112A17.268,17.268,0,0,1,1125.95,261Z" transform="translate(-1099 -248)"/>
</svg>
