<svg data-name="Layer 1" xmlns="http://www.w3.org/2000/svg" viewBox="0 0 55 74.99"><title>Bandplanet logo - SYMBOL</title><path d="M32 6.77a23 23 0 1 0 23 23 23 23 0 0 0-23-23zm10.76 23.67l-14.28 9.44a.86.86 0 0 1-1.34-.72V20.29a.86.86 0 0 1 1.34-.72L42.76 29a.86.86 0 0 1 0 1.44z" fill="#b8dc1e"/><path d="M46 71.6h-8l-1.34-10.18a32 32 0 0 0 7.64-2.11 1.7 1.7 0 1 0-1.3-3.13A28.64 28.64 0 1 1 21.09 3.26a1.7 1.7 0 1 0-1.3-3.13 32 32 0 0 0 7.64 61.28L26.11 71.6h-8a1.7 1.7 0 1 0 0 3.39H46a1.7 1.7 0 0 0 0-3.39z" fill="#fff"/></svg>