<svg xmlns="http://www.w3.org/2000/svg" width="54" height="54" viewBox="0 0 54 54"><defs><style>.cls-1,.cls-2{fill:#bcde29;fill-rule:evenodd}.cls-2{fill:#fff}</style></defs><path id="Rectangle_2_copy" data-name="Rectangle 2 copy" class="cls-1" d="M1202 201v7h-54v-54h54v47zm-2 2v-47h-50v50h50v-3z" transform="translate(-1148 -154)"/><path class="cls-2" d="M46 10v28a6.521 6.521 0 1 1-6.5-6 6.762 6.762 0 0 1 4.5 1.684V10h2zm-6.5 24a4.028 4.028 0 1 0 4.5 4 4.269 4.269 0 0 0-4.5-4zM14 26h24v2H14v-2zm0-8h24v2H14v-2zm0-8h24v2H14v-2zM8 42h3v2H8v-2zm0-8h3v2H8v-2zm0-8h3v2H8v-2zm0-8h3v2H8v-2zm0-8h3v2H8v-2zm20 26H14v-2h14v2zm0 8H14v-2h14v2z"/></svg>